<svg width="39" height="32" viewBox="0 0 39 32" fill="none" xmlns="http://www.w3.org/2000/svg">
<path d="M35.3802 14.25L10.1802 2.26378C9.7551 2.06437 9.26721 1.97763 8.7815 2.01512C8.29579 2.0526 7.83532 2.21254 7.46143 2.47361C7.08754 2.73468 6.81799 3.08449 6.68869 3.47644C6.55938 3.86839 6.57647 4.28387 6.73767 4.66753L11.3322 16L6.73767 27.3338C6.6098 27.6354 6.57061 27.9581 6.62337 28.2749C6.67613 28.5918 6.8193 28.8934 7.04088 29.1546C7.26246 29.4158 7.55598 29.6289 7.89681 29.776C8.23764 29.9231 8.61584 29.9999 8.99967 30C9.41667 29.9993 9.82639 29.9089 10.1892 29.7375L35.3772 17.7313C35.7487 17.5578 36.0581 17.3052 36.2738 16.9992C36.4894 16.6932 36.6035 16.3448 36.6042 15.99C36.605 15.6351 36.4925 15.2865 36.2781 14.9798C36.0638 14.6732 35.7554 14.4196 35.3847 14.245L35.3802 14.25ZM8.99967 28C9.00031 27.995 9.00031 27.99 8.99967 27.985L13.4607 17H22.1997C22.5179 17 22.8232 16.8947 23.0482 16.7071C23.2732 16.5196 23.3997 16.2652 23.3997 16C23.3997 15.7348 23.2732 15.4805 23.0482 15.2929C22.8232 15.1054 22.5179 15 22.1997 15H13.4607L9.00867 4.02003C9.00719 4.01295 9.00414 4.00616 8.99967 4.00003L34.1997 15.9788L8.99967 28Z" fill="#E6E6E6"/>
</svg>
