<svg width="33" height="33" viewBox="0 0 33 33" fill="none" xmlns="http://www.w3.org/2000/svg">
<g clip-path="url(#clip0_42_717)">
<path d="M29.9839 15.2503L8.98387 3.26402C8.62965 3.06461 8.22308 2.97787 7.81832 3.01536C7.41355 3.05285 7.02983 3.21278 6.71825 3.47385C6.40668 3.73492 6.18205 4.08473 6.0743 4.47668C5.96655 4.86864 5.98079 5.28411 6.11512 5.66777L9.94387 17.0003L6.11512 28.334C6.00857 28.6356 5.9759 28.9584 6.01987 29.2752C6.06384 29.592 6.18315 29.8937 6.3678 30.1548C6.55245 30.416 6.79705 30.6291 7.08107 30.7762C7.3651 30.9233 7.68026 31.0001 8.00012 31.0003C8.34762 30.9995 8.68905 30.9091 8.99137 30.7378L29.9814 18.7315C30.291 18.5581 30.5489 18.3054 30.7286 17.9994C30.9083 17.6934 31.0033 17.3451 31.0039 16.9902C31.0046 16.6354 30.9108 16.2867 30.7322 15.9801C30.5536 15.6734 30.2966 15.4198 29.9876 15.2453L29.9839 15.2503ZM8.00012 29.0003C8.00066 28.9953 8.00066 28.9903 8.00012 28.9853L11.7176 18.0003H19.0001C19.2653 18.0003 19.5197 17.8949 19.7072 17.7074C19.8948 17.5198 20.0001 17.2655 20.0001 17.0003C20.0001 16.7351 19.8948 16.4807 19.7072 16.2932C19.5197 16.1056 19.2653 16.0003 19.0001 16.0003H11.7176L8.00762 5.02027C8.00639 5.01319 8.00385 5.00641 8.00012 5.00027L29.0001 16.979L8.00012 29.0003Z" fill="#C3083F"/>
</g>
<defs>
<clipPath id="clip0_42_717">
<rect width="32.0673" height="32" fill="white" transform="translate(0.932739 0.84375)"/>
</clipPath>
</defs>
</svg>
